<svg xmlns="http://www.w3.org/2000/svg" viewBox="0 0 189.67 112.25"><defs><style>.cls-1{fill:#272727;}.cls-2{fill:#5c5ac0;}.cls-3{fill:#44448e;}.cls-4{opacity:0.25;}.cls-5{fill:#7368ea;}.cls-6{fill:#fff;}</style></defs><g id="Camada_2" data-name="Camada 2"><g id="Camada_1-2" data-name="Camada 1"><polygon class="cls-1" points="123.46 57.66 184.79 49.19 176.39 109.25 30.03 112.25 30.03 75.28 123.46 57.66"/><polygon class="cls-2" points="30.03 112.25 33.63 77.02 0 83.42 30.03 112.25"/><polyline class="cls-3" points="0 83.42 33.63 77.02 32 93.01 0 83.42"/><polygon class="cls-4" points="32 93.01 142.42 58.73 126.13 57.93 33.63 77.02 32 93.01"/><polygon class="cls-5" points="174.98 52.59 0 83.42 5.47 32.03 189.67 0 174.98 52.59"/><path class="cls-6" d="M10.32,56.76v-.08c.5-8.24,6.94-15.8,15.14-17.29,5.53-1,8.93.78,11.08,3.82l-5.95,5.58a5.49,5.49,0,0,0-5.68-2.24c-3.78.69-6.65,4.53-6.91,8.65v.08c-.27,4.24,2.15,7.07,5.9,6.38,2.8-.51,4.54-2.18,6.3-4.54l5.3,3.18c-2.8,4.14-6.4,7.47-12.32,8.56C15.54,70.26,9.8,65.21,10.32,56.76Z"/><path class="cls-6" d="M40.33,37.26l12.85-2.32c4.16-.75,7-.14,8.62,1.47,1.46,1.33,2.09,3.36,1.85,6.15v.08a12.37,12.37,0,0,1-6.31,9.69L62.93,61l-8.61,1.57L49.61,55h-.08l-3.19.58-.69,8.57-7.43,1.36ZM51.76,48.57c2.55-.46,4.12-2,4.29-4.08v-.08c.18-2.22-1.28-3.07-3.8-2.62l-4.92.89-.52,6.79Z"/><path class="cls-6" d="M73.59,48.67,64.81,32.84l8.62-1.55,4.68,9.29,6.6-11.31,8.49-1.53-12,19.44-1,10.71-7.51,1.36Z"/><path class="cls-6" d="M95.55,27.32l11.76-2.1c7-1.24,11,1.64,10.34,7.9v.08c-.74,6.66-6.08,11.07-12.85,12.29l-3.73.67-.85,8.08-7.5,1.36Zm9.74,12.06c2.69-.49,4.49-2.24,4.72-4.46v-.08c.26-2.42-1.25-3.42-4-2.93l-3.56.64L101.71,40Z"/><path class="cls-6" d="M127.91,28.27l-8.24,1.48.75-6.87,24.2-4.31-.83,6.87-8.26,1.47L133,48.32l-7.54,1.36Z"/><path class="cls-6" d="M144.1,32.58V32.5c1-8.12,8.21-15.84,16.76-17.36s14,3.87,12.92,12l0,.08c-1.12,8.12-8.38,15.84-16.82,17.36S143.09,40.7,144.1,32.58ZM166,28.68V28.6c.55-4.08-1.87-7.12-6.09-6.37s-7.43,4.71-7.95,8.79v.08c-.52,4.08,1.89,7.12,6,6.38S165.41,32.76,166,28.68Z"/><path class="cls-6" d="M54.22,79.42l11.09-.5c2.72-.13,4.53.49,5.6,1.74a4.23,4.23,0,0,1,.86,3.56v.06a6.6,6.6,0,0,1-4.06,5.14c2.49.78,3.93,2.24,3.48,5.27v.07c-.57,3.84-3.93,6.31-9.07,6.54l-11.1.5Zm8.31,8.49c1.82-.09,2.93-.77,3.12-2.08v-.07c.18-1.21-.64-1.87-2.43-1.79l-3.89.17-.57,3.94Zm-.37,8.43c1.82-.08,3-.86,3.17-2.17V94.1c.17-1.21-.64-2-2.64-1.88l-4.56.21-.6,4.12Z"/><path class="cls-6" d="M76.3,78.42l17.39-.79-.79,5.28-11.45.52L81,86.82l10.36-.47-.73,4.89-10.36.47-.52,3.55,11.58-.52L90.49,100l-17.48.8Z"/><path class="cls-6" d="M101.37,82.69,94.88,83l.82-5.44,19-.85-.83,5.43-6.49.3-2.58,17-6,.27Z"/><path class="cls-6" d="M112.27,95.72l4-4.27a9,9,0,0,0,6.58,2.37c1.6-.07,2.56-.69,2.71-1.65v-.06c.14-.93-.49-1.41-3.31-2-4.42-.88-7.76-2.06-7.06-6.67V83.4c.64-4.16,4.29-7.31,9.48-7.54,3.68-.17,6.4.72,8.44,2.57l-3.68,4.51A8.81,8.81,0,0,0,123.7,81c-1.45.07-2.26.74-2.39,1.54v.06c-.15,1,.52,1.44,3.4,2,4.8.89,7.62,2.42,7,6.61v.06c-.71,4.57-4.62,7.45-9.86,7.69C118,99.15,114.53,98.07,112.27,95.72Z"/><path class="cls-6" d="M133.86,91.86l6.1-.28-1,6.24-6.1.27Z"/><path class="cls-6" d="M145.58,74.34l6.13-.28L151,78.54l-6.12.28Zm-.84,6,5.88-.27-2.77,17.31-5.86.26Z"/><path class="cls-6" d="M151.81,88.73v-.07a11.65,11.65,0,0,1,10.72-9.47c5.35-.24,8.55,3.65,7.74,8.58v.06a11.67,11.67,0,0,1-10.72,9.47C154.22,97.54,151,93.65,151.81,88.73Zm12.74-.58v-.06c.35-2.11-.84-3.84-2.91-3.74a4.58,4.58,0,0,0-4.11,4v.07c-.34,2.11.85,3.83,2.91,3.74A4.61,4.61,0,0,0,164.55,88.15Z"/></g></g></svg>