<svg xmlns="http://www.w3.org/2000/svg" viewBox="0 0 25.2 17.84"><defs><style>.cls-1{fill:#fff;}</style></defs><g id="Camada_2" data-name="Camada 2"><g id="Camada_1-2" data-name="Camada 1"><path class="cls-1" d="M18.66,10.69H2A1.77,1.77,0,0,1,.22,8.12a1.91,1.91,0,0,1,1.9-1H18.7c0-.4-.27-.52-.44-.69C17.18,5.39,16.08,4.31,15,3.22A1.79,1.79,0,0,1,14.79.53a1.85,1.85,0,0,1,2.76.19l.43.43c2.23,2.15,4.33,4.43,6.64,6.51a1.68,1.68,0,0,1,0,2.55c-2.47,2.16-4.66,4.59-7,6.85a2.15,2.15,0,0,1-1.14.75A1.71,1.71,0,0,1,14.52,17a1.67,1.67,0,0,1,.29-2.15c1.07-1.1,2.17-2.18,3.27-3.25a5.46,5.46,0,0,1,.78-.55Z"/></g></g></svg>