<svg xmlns="http://www.w3.org/2000/svg" viewBox="0 0 12.42 15.01"><defs><style>.cls-1{fill:#fff;}</style></defs><g id="Camada_2" data-name="Camada 2"><g id="Camada_1-2" data-name="Camada 1"><g id="wExS1U.tif"><path class="cls-1" d="M8.27,15H1.41A1.74,1.74,0,0,1,0,13.15C0,10,0,6.87,0,3.73a2.91,2.91,0,0,1,0-.51A1.7,1.7,0,0,1,1.72,1.85h.87c.12,0,.18,0,.18-.16s0-.07,0-.11A1.65,1.65,0,0,1,4.43,0h6.32a1.63,1.63,0,0,1,1.39.74,1.87,1.87,0,0,1,.28.82v10a.51.51,0,0,1,0,.13,1.68,1.68,0,0,1-1.46,1.44c-.34,0-.67,0-1,0s-.26,0-.28.27a1.59,1.59,0,0,1-.22.76A1.72,1.72,0,0,1,8.27,15ZM1.12,8.45v4.49c0,.16,0,.31,0,.46a.55.55,0,0,0,.52.52H8a.57.57,0,0,0,.53-.53V3.47A.55.55,0,0,0,8.08,3H1.59a.53.53,0,0,0-.46.48,2.17,2.17,0,0,0,0,.26ZM11.31,6.58V1.63a.56.56,0,0,0-.39-.5.83.83,0,0,0-.27,0H4.39a.55.55,0,0,0-.5.46c-.05.24,0,.28.23.28H7.93a1.69,1.69,0,0,1,1.7,1.4,3.08,3.08,0,0,1,0,.53v8.14c0,.09.05.13.14.13.33,0,.67,0,1,0a.52.52,0,0,0,.48-.5,2,2,0,0,0,0-.25Z"/></g></g></g></svg>