<svg xmlns="http://www.w3.org/2000/svg" viewBox="0 0 19.62 12.72"><defs><style>.cls-1{fill:#fff;}</style></defs><g id="Camada_2" data-name="Camada 2"><g id="Camada_1-2" data-name="Camada 1"><g id="JMS5EB.tif"><path class="cls-1" d="M9.8,12.72H2.34A2.31,2.31,0,0,1,0,10.36V2.43A2.26,2.26,0,0,1,1.85.12a2,2,0,0,1,.35,0H6.31a.51.51,0,0,1,.48.77.56.56,0,0,1-.52.25c-1.32,0-2.65,0-4,0a1.21,1.21,0,0,0-1.23,1,2,2,0,0,0,0,.35v8a1.21,1.21,0,0,0,1.29,1.29h15a1.2,1.2,0,0,0,1.28-1.27q0-4,0-8a1.2,1.2,0,0,0-1.26-1.27c-1.34,0-2.67,0-4,0A.51.51,0,0,1,12.78.4a.48.48,0,0,1,.48-.31c1.38,0,2.77,0,4.15,0a2.21,2.21,0,0,1,2.2,2.23q0,4.08,0,8.14a2.24,2.24,0,0,1-2.33,2.26Z"/><path class="cls-1" d="M9.78,9.3H3.61a.51.51,0,0,1-.51-.54.5.5,0,0,1,.53-.49H16.07a.51.51,0,0,1,0,1,1.22,1.22,0,0,1-.27,0Z"/><path class="cls-1" d="M9.29,5.4V.58A.52.52,0,0,1,10,.06a.57.57,0,0,1,.28.55c0,1.51,0,3,0,4.53v.27c.12,0,.15-.07.2-.12l1-1a.51.51,0,0,1,.77-.06.53.53,0,0,1-.05.8l-.12.13c-.63.64-1.29,1.25-1.89,1.92a.5.5,0,0,1-.74,0c-.62-.72-1.33-1.35-2-2a.63.63,0,0,1-.22-.33.5.5,0,0,1,.25-.56.48.48,0,0,1,.62.09c.32.31.63.63.94.94.06.07.11.16.16.23Z"/></g></g></g></svg>